<svg width="20" height="20" viewBox="0 0 20 20" fill="none" xmlns="http://www.w3.org/2000/svg">
<path d="M2.57861 3.32074H7.03145C7.81876 3.32074 8.57382 3.6335 9.13053 4.19021C9.68724 4.74692 10 5.50198 10 6.28929V16.6792C10 16.0888 9.76543 15.5225 9.3479 15.1049C8.93036 14.6874 8.36407 14.4528 7.77358 14.4528H2.57861V3.32074Z" stroke="#929FA9" stroke-width="1.48428" stroke-linecap="round" stroke-linejoin="round"/>
<path d="M17.4214 3.32074H12.9686C12.1812 3.32074 11.4262 3.6335 10.8695 4.19021C10.3128 4.74692 10 5.50198 10 6.28929V16.6792C10 16.0888 10.2346 15.5225 10.6521 15.1049C11.0696 14.6874 11.6359 14.4528 12.2264 14.4528H17.4214V3.32074Z" stroke="#929FA9" stroke-width="1.48428" stroke-linecap="round" stroke-linejoin="round"/>
</svg>
