<svg width="18" height="13" viewBox="0 0 18 13" fill="none" xmlns="http://www.w3.org/2000/svg">
<path d="M1 12.0983C0.71667 12.0983 0.479337 12.0023 0.288004 11.8103C0.0966702 11.6183 0.000670115 11.3809 3.44827e-06 11.0983C-0.000663218 10.8156 0.0953369 10.5783 0.288004 10.3863C0.48067 10.1943 0.718003 10.0983 1 10.0983H17C17.2833 10.0983 17.521 10.1943 17.713 10.3863C17.905 10.5783 18.0007 10.8156 18 11.0983C17.9993 11.3809 17.9033 11.6186 17.712 11.8113C17.5207 12.0039 17.2833 12.0996 17 12.0983H1ZM1 7.09827C0.71667 7.09827 0.479337 7.00227 0.288004 6.81027C0.0966702 6.61827 0.000670115 6.38093 3.44827e-06 6.09827C-0.000663218 5.8156 0.0953369 5.57827 0.288004 5.38627C0.48067 5.19427 0.718003 5.09827 1 5.09827H17C17.2833 5.09827 17.521 5.19427 17.713 5.38627C17.905 5.57827 18.0007 5.8156 18 6.09827C17.9993 6.38093 17.9033 6.6186 17.712 6.81127C17.5207 7.00393 17.2833 7.0996 17 7.09827H1ZM1 2.09827C0.71667 2.09827 0.479337 2.00227 0.288004 1.81027C0.0966702 1.61827 0.000670115 1.38093 3.44827e-06 1.09827C-0.000663218 0.8156 0.0953369 0.578267 0.288004 0.386267C0.48067 0.194267 0.718003 0.0982666 1 0.0982666H17C17.2833 0.0982666 17.521 0.194267 17.713 0.386267C17.905 0.578267 18.0007 0.8156 18 1.09827C17.9993 1.38093 17.9033 1.6186 17.712 1.81127C17.5207 2.00393 17.2833 2.0996 17 2.09827H1Z" fill="#102325"/>
</svg>
