<svg width="15" height="15" viewBox="0 0 15 15" fill="none" xmlns="http://www.w3.org/2000/svg">
<path d="M13 4.49992V3.49992C13 3.1463 12.8595 2.80716 12.6095 2.55711C12.3594 2.30706 12.0203 2.16659 11.6667 2.16659H2.33333C1.97971 2.16659 1.64057 2.30706 1.39052 2.55711C1.14048 2.80716 1 3.1463 1 3.49992V12.8333C1 13.1869 1.14048 13.526 1.39052 13.7761C1.64057 14.0261 1.97971 14.1666 2.33333 14.1666H4.66667M9.66667 0.833252V3.49992M4.33333 0.833252V3.49992M1 6.16659H4.33333M10.6667 11.1666L9.66667 10.3666V8.83325M13.6667 10.1666C13.6667 12.3757 11.8758 14.1666 9.66667 14.1666C7.45753 14.1666 5.66667 12.3757 5.66667 10.1666C5.66667 7.95745 7.45753 6.16659 9.66667 6.16659C11.8758 6.16659 13.6667 7.95745 13.6667 10.1666Z" stroke="#090F18" stroke-opacity="0.48" stroke-width="1.33333" stroke-linecap="round" stroke-linejoin="round"/>
</svg>
