<svg width="24" height="25" viewBox="0 0 24 25" fill="none" xmlns="http://www.w3.org/2000/svg">
<path d="M7.05028 18.4624C6.84993 18.6627 6.61423 18.7626 6.34317 18.7622C6.07211 18.7617 5.83641 18.6618 5.63606 18.4624C5.43572 18.2629 5.33578 18.0272 5.33625 17.7552C5.33672 17.4832 5.43666 17.2475 5.63606 17.0481L16.9498 5.73443C17.1501 5.53408 17.3861 5.43391 17.6576 5.43391C17.9291 5.43391 18.1646 5.53408 18.364 5.73443C18.5634 5.93478 18.6636 6.17072 18.6645 6.44225C18.6654 6.71377 18.5653 6.94924 18.364 7.14864L7.05028 18.4624Z" fill="#102325"/>
<path d="M5.63616 7.14867C5.43581 6.94832 5.33587 6.71262 5.33634 6.44156C5.33682 6.1705 5.43675 5.9348 5.63616 5.73445C5.83556 5.53411 6.07126 5.43417 6.34326 5.43464C6.61526 5.43511 6.85097 5.53505 7.05037 5.73445L18.3641 17.0482C18.5644 17.2485 18.6646 17.4844 18.6646 17.756C18.6646 18.0275 18.5644 18.263 18.3641 18.4624C18.1637 18.6618 17.9278 18.762 17.6563 18.7629C17.3847 18.7638 17.1493 18.6637 16.9499 18.4624L5.63616 7.14867Z" fill="#102325"/>
</svg>
