<svg width="12" height="12" viewBox="0 0 12 12" fill="none" xmlns="http://www.w3.org/2000/svg">
<g clip-path="url(#clip0_105_1040)">
<path fill-rule="evenodd" clip-rule="evenodd" d="M6 0.5C6.13261 0.5 6.25978 0.552678 6.35355 0.646447C6.44732 0.740215 6.5 0.867392 6.5 1V1.5C6.5 1.63261 6.44732 1.75979 6.35355 1.85355C6.25978 1.94732 6.13261 2 6 2C5.86739 2 5.74021 1.94732 5.64645 1.85355C5.55268 1.75979 5.5 1.63261 5.5 1.5V1C5.5 0.867392 5.55268 0.740215 5.64645 0.646447C5.74021 0.552678 5.86739 0.5 6 0.5ZM1.6465 1.6465C1.74026 1.55276 1.86742 1.50011 2 1.50011C2.13258 1.50011 2.25974 1.55276 2.3535 1.6465L2.8535 2.1465C2.94458 2.2408 2.99498 2.3671 2.99384 2.4982C2.9927 2.6293 2.94011 2.75471 2.84741 2.84741C2.7547 2.94011 2.6293 2.9927 2.4982 2.99384C2.3671 2.99498 2.2408 2.94458 2.1465 2.8535L1.6465 2.3535C1.55276 2.25974 1.50011 2.13258 1.50011 2C1.50011 1.86742 1.55276 1.74026 1.6465 1.6465ZM10.3535 1.6465C10.4472 1.74026 10.4999 1.86742 10.4999 2C10.4999 2.13258 10.4472 2.25974 10.3535 2.3535L9.8535 2.8535C9.80738 2.90125 9.7522 2.93935 9.6912 2.96555C9.6302 2.99176 9.56459 3.00555 9.4982 3.00613C9.43181 3.0067 9.36597 2.99405 9.30452 2.96891C9.24307 2.94377 9.18725 2.90664 9.1403 2.8597C9.09336 2.81275 9.05623 2.75693 9.03109 2.69548C9.00595 2.63403 8.9933 2.56819 8.99387 2.5018C8.99445 2.43541 9.00824 2.3698 9.03445 2.3088C9.06065 2.2478 9.09874 2.19262 9.1465 2.1465L9.6465 1.6465C9.74026 1.55276 9.86742 1.50011 10 1.50011C10.1326 1.50011 10.2597 1.55276 10.3535 1.6465ZM6 3.5C5.33696 3.5 4.70107 3.76339 4.23223 4.23223C3.76339 4.70107 3.5 5.33696 3.5 6C3.5 6.66304 3.76339 7.29893 4.23223 7.76777C4.70107 8.23661 5.33696 8.5 6 8.5C6.66304 8.5 7.29893 8.23661 7.76777 7.76777C8.23661 7.29893 8.5 6.66304 8.5 6C8.5 5.33696 8.23661 4.70107 7.76777 4.23223C7.29893 3.76339 6.66304 3.5 6 3.5ZM0.5 6C0.5 5.86739 0.552678 5.74021 0.646447 5.64645C0.740215 5.55268 0.867392 5.5 1 5.5H1.5C1.63261 5.5 1.75979 5.55268 1.85355 5.64645C1.94732 5.74021 2 5.86739 2 6C2 6.13261 1.94732 6.25979 1.85355 6.35355C1.75979 6.44732 1.63261 6.5 1.5 6.5H1C0.867392 6.5 0.740215 6.44732 0.646447 6.35355C0.552678 6.25979 0.5 6.13261 0.5 6ZM10 6C10 5.86739 10.0527 5.74021 10.1464 5.64645C10.2402 5.55268 10.3674 5.5 10.5 5.5H11C11.1326 5.5 11.2598 5.55268 11.3536 5.64645C11.4473 5.74021 11.5 5.86739 11.5 6C11.5 6.13261 11.4473 6.25979 11.3536 6.35355C11.2598 6.44732 11.1326 6.5 11 6.5H10.5C10.3674 6.5 10.2402 6.44732 10.1464 6.35355C10.0527 6.25979 10 6.13261 10 6ZM2.1465 9.1465C2.2408 9.05542 2.3671 9.00502 2.4982 9.00616C2.6293 9.0073 2.7547 9.05989 2.84741 9.15259C2.94011 9.24529 2.9927 9.3707 2.99384 9.5018C2.99498 9.6329 2.94458 9.7592 2.8535 9.8535L2.3535 10.3535C2.2592 10.4446 2.1329 10.495 2.0018 10.4938C1.8707 10.4927 1.74529 10.4401 1.65259 10.3474C1.55989 10.2547 1.5073 10.1293 1.50616 9.9982C1.50502 9.8671 1.55542 9.7408 1.6465 9.6465L2.1465 9.1465ZM9.6465 10.3535L9.1465 9.8535C9.05542 9.7592 9.00502 9.6329 9.00616 9.5018C9.0073 9.3707 9.05989 9.24529 9.15259 9.15259C9.24529 9.05989 9.3707 9.0073 9.5018 9.00616C9.6329 9.00502 9.7592 9.05542 9.8535 9.1465L10.3535 9.6465C10.4446 9.7408 10.495 9.8671 10.4938 9.9982C10.4927 10.1293 10.4401 10.2547 10.3474 10.3474C10.2547 10.4401 10.1293 10.4927 9.9982 10.4938C9.8671 10.495 9.7408 10.4446 9.6465 10.3535ZM6 10C6.13261 10 6.25978 10.0527 6.35355 10.1464C6.44732 10.2402 6.5 10.3674 6.5 10.5V11C6.5 11.1326 6.44732 11.2598 6.35355 11.3536C6.25978 11.4473 6.13261 11.5 6 11.5C5.86739 11.5 5.74021 11.4473 5.64645 11.3536C5.55268 11.2598 5.5 11.1326 5.5 11V10.5C5.5 10.3674 5.55268 10.2402 5.64645 10.1464C5.74021 10.0527 5.86739 10 6 10Z" fill="#090F18"/>
<path d="M6 3C5.20435 3 4.44129 3.31607 3.87868 3.87868C3.31607 4.44129 3 5.20435 3 6C3 6.79565 3.31607 7.55871 3.87868 8.12132C4.44129 8.68393 5.20435 9 6 9C6.79565 9 7.55871 8.68393 8.12132 8.12132C8.68393 7.55871 9 6.79565 9 6C9 5.20435 8.68393 4.44129 8.12132 3.87868C7.55871 3.31607 6.79565 3 6 3Z" fill="#090F18"/>
</g>
<defs>
<clipPath id="clip0_105_1040">
<rect width="12" height="12" fill="white"/>
</clipPath>
</defs>
</svg>
